<mxfile host="Electron" agent="Mozilla/5.0 (Windows NT 10.0; Win64; x64) AppleWebKit/537.36 (KHTML, like Gecko) draw.io/28.1.2 Chrome/138.0.7204.243 Electron/37.4.0 Safari/537.36" version="28.1.2">
  <diagram name="Page-1" id="-aEFHGGGCq_c_az-Hwoa">
    <mxGraphModel dx="1213" dy="876" grid="1" gridSize="10" guides="1" tooltips="1" connect="1" arrows="1" fold="1" page="1" pageScale="1" pageWidth="850" pageHeight="1100" math="0" shadow="0">
      <root>
        <mxCell id="0" />
        <mxCell id="1" parent="0" />
        <mxCell id="Dxs8wHaU1ta9mD4ZsN2h-1" value="" style="rounded=0;whiteSpace=wrap;html=1;dashed=1;fillColor=none;" parent="1" vertex="1">
          <mxGeometry x="120" y="130" width="130" height="450" as="geometry" />
        </mxCell>
        <mxCell id="Dxs8wHaU1ta9mD4ZsN2h-2" value="Sources" style="rounded=0;whiteSpace=wrap;html=1;dashed=1;" parent="1" vertex="1">
          <mxGeometry x="120" y="130" width="130" height="30" as="geometry" />
        </mxCell>
        <mxCell id="Dxs8wHaU1ta9mD4ZsN2h-8" value="Bronze Layer" style="rounded=0;whiteSpace=wrap;html=1;fillColor=none;" parent="1" vertex="1">
          <mxGeometry x="310" y="120" width="150" height="30" as="geometry" />
        </mxCell>
        <mxCell id="Dxs8wHaU1ta9mD4ZsN2h-9" value="" style="rounded=0;whiteSpace=wrap;html=1;fillColor=none;" parent="1" vertex="1">
          <mxGeometry x="310" y="160" width="150" height="420" as="geometry" />
        </mxCell>
        <mxCell id="tEHHGbNQgzvm8dG8htd9-10" style="edgeStyle=orthogonalEdgeStyle;rounded=0;orthogonalLoop=1;jettySize=auto;html=1;entryX=0;entryY=0.5;entryDx=0;entryDy=0;" edge="1" parent="1" source="tEHHGbNQgzvm8dG8htd9-1" target="tEHHGbNQgzvm8dG8htd9-4">
          <mxGeometry relative="1" as="geometry" />
        </mxCell>
        <mxCell id="tEHHGbNQgzvm8dG8htd9-11" style="edgeStyle=orthogonalEdgeStyle;rounded=0;orthogonalLoop=1;jettySize=auto;html=1;entryX=0;entryY=0.5;entryDx=0;entryDy=0;" edge="1" parent="1" source="tEHHGbNQgzvm8dG8htd9-1" target="tEHHGbNQgzvm8dG8htd9-3">
          <mxGeometry relative="1" as="geometry" />
        </mxCell>
        <mxCell id="tEHHGbNQgzvm8dG8htd9-12" style="edgeStyle=orthogonalEdgeStyle;rounded=0;orthogonalLoop=1;jettySize=auto;html=1;entryX=0;entryY=0.5;entryDx=0;entryDy=0;" edge="1" parent="1" source="tEHHGbNQgzvm8dG8htd9-1" target="tEHHGbNQgzvm8dG8htd9-5">
          <mxGeometry relative="1" as="geometry" />
        </mxCell>
        <mxCell id="tEHHGbNQgzvm8dG8htd9-1" value="CRM" style="image;aspect=fixed;html=1;points=[];align=center;fontSize=12;image=img/lib/azure2/general/Folder_Blank.svg;" vertex="1" parent="1">
          <mxGeometry x="160.36" y="250" width="49.64" height="40.28" as="geometry" />
        </mxCell>
        <mxCell id="tEHHGbNQgzvm8dG8htd9-13" style="edgeStyle=orthogonalEdgeStyle;rounded=0;orthogonalLoop=1;jettySize=auto;html=1;entryX=0;entryY=0.5;entryDx=0;entryDy=0;" edge="1" parent="1" source="tEHHGbNQgzvm8dG8htd9-2" target="tEHHGbNQgzvm8dG8htd9-7">
          <mxGeometry relative="1" as="geometry" />
        </mxCell>
        <mxCell id="tEHHGbNQgzvm8dG8htd9-14" style="edgeStyle=orthogonalEdgeStyle;rounded=0;orthogonalLoop=1;jettySize=auto;html=1;entryX=0;entryY=0.5;entryDx=0;entryDy=0;" edge="1" parent="1" source="tEHHGbNQgzvm8dG8htd9-2" target="tEHHGbNQgzvm8dG8htd9-6">
          <mxGeometry relative="1" as="geometry" />
        </mxCell>
        <mxCell id="tEHHGbNQgzvm8dG8htd9-15" style="edgeStyle=orthogonalEdgeStyle;rounded=0;orthogonalLoop=1;jettySize=auto;html=1;entryX=0;entryY=0.5;entryDx=0;entryDy=0;" edge="1" parent="1" source="tEHHGbNQgzvm8dG8htd9-2" target="tEHHGbNQgzvm8dG8htd9-8">
          <mxGeometry relative="1" as="geometry" />
        </mxCell>
        <mxCell id="tEHHGbNQgzvm8dG8htd9-2" value="ERP" style="image;aspect=fixed;html=1;points=[];align=center;fontSize=12;image=img/lib/azure2/general/Folder_Blank.svg;" vertex="1" parent="1">
          <mxGeometry x="160.36" y="410" width="49.29" height="40" as="geometry" />
        </mxCell>
        <mxCell id="tEHHGbNQgzvm8dG8htd9-25" value="" style="edgeStyle=orthogonalEdgeStyle;rounded=0;orthogonalLoop=1;jettySize=auto;html=1;entryX=0;entryY=0.5;entryDx=0;entryDy=0;" edge="1" parent="1" source="tEHHGbNQgzvm8dG8htd9-3" target="tEHHGbNQgzvm8dG8htd9-19">
          <mxGeometry relative="1" as="geometry" />
        </mxCell>
        <mxCell id="tEHHGbNQgzvm8dG8htd9-3" value="crm_sales_details" style="rounded=1;whiteSpace=wrap;html=1;" vertex="1" parent="1">
          <mxGeometry x="325" y="190" width="115" height="30" as="geometry" />
        </mxCell>
        <mxCell id="tEHHGbNQgzvm8dG8htd9-26" style="edgeStyle=orthogonalEdgeStyle;rounded=0;orthogonalLoop=1;jettySize=auto;html=1;entryX=0;entryY=0.5;entryDx=0;entryDy=0;" edge="1" parent="1" source="tEHHGbNQgzvm8dG8htd9-4" target="tEHHGbNQgzvm8dG8htd9-20">
          <mxGeometry relative="1" as="geometry" />
        </mxCell>
        <mxCell id="tEHHGbNQgzvm8dG8htd9-4" value="crm_cust_info" style="rounded=1;whiteSpace=wrap;html=1;" vertex="1" parent="1">
          <mxGeometry x="325" y="240" width="115" height="30" as="geometry" />
        </mxCell>
        <mxCell id="tEHHGbNQgzvm8dG8htd9-27" style="edgeStyle=orthogonalEdgeStyle;rounded=0;orthogonalLoop=1;jettySize=auto;html=1;entryX=0;entryY=0.5;entryDx=0;entryDy=0;" edge="1" parent="1" source="tEHHGbNQgzvm8dG8htd9-5" target="tEHHGbNQgzvm8dG8htd9-21">
          <mxGeometry relative="1" as="geometry" />
        </mxCell>
        <mxCell id="tEHHGbNQgzvm8dG8htd9-5" value="crm_prod_info" style="rounded=1;whiteSpace=wrap;html=1;" vertex="1" parent="1">
          <mxGeometry x="325" y="290" width="115" height="30" as="geometry" />
        </mxCell>
        <mxCell id="tEHHGbNQgzvm8dG8htd9-28" style="edgeStyle=orthogonalEdgeStyle;rounded=0;orthogonalLoop=1;jettySize=auto;html=1;entryX=0;entryY=0.5;entryDx=0;entryDy=0;" edge="1" parent="1" source="tEHHGbNQgzvm8dG8htd9-6" target="tEHHGbNQgzvm8dG8htd9-22">
          <mxGeometry relative="1" as="geometry" />
        </mxCell>
        <mxCell id="tEHHGbNQgzvm8dG8htd9-6" value="erp_cust_az12" style="rounded=1;whiteSpace=wrap;html=1;" vertex="1" parent="1">
          <mxGeometry x="327.5" y="370" width="115" height="30" as="geometry" />
        </mxCell>
        <mxCell id="tEHHGbNQgzvm8dG8htd9-29" style="edgeStyle=orthogonalEdgeStyle;rounded=0;orthogonalLoop=1;jettySize=auto;html=1;" edge="1" parent="1" source="tEHHGbNQgzvm8dG8htd9-7" target="tEHHGbNQgzvm8dG8htd9-23">
          <mxGeometry relative="1" as="geometry" />
        </mxCell>
        <mxCell id="tEHHGbNQgzvm8dG8htd9-7" value="erp_loc_a101" style="rounded=1;whiteSpace=wrap;html=1;" vertex="1" parent="1">
          <mxGeometry x="327.5" y="420" width="115" height="30" as="geometry" />
        </mxCell>
        <mxCell id="tEHHGbNQgzvm8dG8htd9-30" style="edgeStyle=orthogonalEdgeStyle;rounded=0;orthogonalLoop=1;jettySize=auto;html=1;entryX=0;entryY=0.5;entryDx=0;entryDy=0;" edge="1" parent="1" source="tEHHGbNQgzvm8dG8htd9-8" target="tEHHGbNQgzvm8dG8htd9-24">
          <mxGeometry relative="1" as="geometry" />
        </mxCell>
        <mxCell id="tEHHGbNQgzvm8dG8htd9-8" value="erp_px_cat_g1v2" style="rounded=1;whiteSpace=wrap;html=1;" vertex="1" parent="1">
          <mxGeometry x="327.5" y="470" width="115" height="30" as="geometry" />
        </mxCell>
        <mxCell id="tEHHGbNQgzvm8dG8htd9-16" value="&lt;b&gt;&lt;font style=&quot;font-size: 27px;&quot;&gt;Data Flow Diagram&lt;/font&gt;&lt;/b&gt;" style="text;html=1;align=center;verticalAlign=middle;whiteSpace=wrap;rounded=0;" vertex="1" parent="1">
          <mxGeometry x="22.5" y="10" width="350" height="50" as="geometry" />
        </mxCell>
        <mxCell id="tEHHGbNQgzvm8dG8htd9-17" value="Silver Layer" style="rounded=0;whiteSpace=wrap;html=1;fillColor=none;" vertex="1" parent="1">
          <mxGeometry x="550" y="120" width="150" height="30" as="geometry" />
        </mxCell>
        <mxCell id="tEHHGbNQgzvm8dG8htd9-18" value="" style="rounded=0;whiteSpace=wrap;html=1;fillColor=none;" vertex="1" parent="1">
          <mxGeometry x="550" y="160" width="150" height="420" as="geometry" />
        </mxCell>
        <mxCell id="tEHHGbNQgzvm8dG8htd9-19" value="crm_sales_details" style="rounded=1;whiteSpace=wrap;html=1;" vertex="1" parent="1">
          <mxGeometry x="565" y="190" width="115" height="30" as="geometry" />
        </mxCell>
        <mxCell id="tEHHGbNQgzvm8dG8htd9-20" value="crm_cust_info" style="rounded=1;whiteSpace=wrap;html=1;" vertex="1" parent="1">
          <mxGeometry x="565" y="240" width="115" height="30" as="geometry" />
        </mxCell>
        <mxCell id="tEHHGbNQgzvm8dG8htd9-21" value="crm_prod_info" style="rounded=1;whiteSpace=wrap;html=1;" vertex="1" parent="1">
          <mxGeometry x="565" y="290" width="115" height="30" as="geometry" />
        </mxCell>
        <mxCell id="tEHHGbNQgzvm8dG8htd9-22" value="erp_cust_az12" style="rounded=1;whiteSpace=wrap;html=1;" vertex="1" parent="1">
          <mxGeometry x="567.5" y="370" width="115" height="30" as="geometry" />
        </mxCell>
        <mxCell id="tEHHGbNQgzvm8dG8htd9-23" value="erp_loc_a101" style="rounded=1;whiteSpace=wrap;html=1;" vertex="1" parent="1">
          <mxGeometry x="567.5" y="420" width="115" height="30" as="geometry" />
        </mxCell>
        <mxCell id="tEHHGbNQgzvm8dG8htd9-24" value="erp_px_cat_g1v2" style="rounded=1;whiteSpace=wrap;html=1;" vertex="1" parent="1">
          <mxGeometry x="567.5" y="470" width="115" height="30" as="geometry" />
        </mxCell>
        <mxCell id="tEHHGbNQgzvm8dG8htd9-31" value="Gold Layer" style="rounded=0;whiteSpace=wrap;html=1;fillColor=none;" vertex="1" parent="1">
          <mxGeometry x="800" y="120" width="150" height="30" as="geometry" />
        </mxCell>
        <mxCell id="tEHHGbNQgzvm8dG8htd9-32" value="" style="rounded=0;whiteSpace=wrap;html=1;fillColor=none;" vertex="1" parent="1">
          <mxGeometry x="800" y="160" width="150" height="420" as="geometry" />
        </mxCell>
        <mxCell id="tEHHGbNQgzvm8dG8htd9-33" value="fact_sales" style="rounded=1;whiteSpace=wrap;html=1;" vertex="1" parent="1">
          <mxGeometry x="817.5" y="255.14" width="115" height="30" as="geometry" />
        </mxCell>
        <mxCell id="tEHHGbNQgzvm8dG8htd9-34" value="dim_customer" style="rounded=1;whiteSpace=wrap;html=1;" vertex="1" parent="1">
          <mxGeometry x="817.5" y="355" width="115" height="30" as="geometry" />
        </mxCell>
        <mxCell id="tEHHGbNQgzvm8dG8htd9-35" value="dim_products" style="rounded=1;whiteSpace=wrap;html=1;" vertex="1" parent="1">
          <mxGeometry x="817.5" y="460" width="115" height="30" as="geometry" />
        </mxCell>
        <mxCell id="tEHHGbNQgzvm8dG8htd9-39" value="" style="endArrow=classic;html=1;rounded=0;exitX=1;exitY=0.5;exitDx=0;exitDy=0;entryX=0;entryY=0.5;entryDx=0;entryDy=0;" edge="1" parent="1" source="tEHHGbNQgzvm8dG8htd9-19" target="tEHHGbNQgzvm8dG8htd9-33">
          <mxGeometry width="50" height="50" relative="1" as="geometry">
            <mxPoint x="730" y="230" as="sourcePoint" />
            <mxPoint x="780" y="180" as="targetPoint" />
          </mxGeometry>
        </mxCell>
        <mxCell id="tEHHGbNQgzvm8dG8htd9-40" value="" style="endArrow=classic;html=1;rounded=0;exitX=1;exitY=0.5;exitDx=0;exitDy=0;entryX=0;entryY=0.5;entryDx=0;entryDy=0;" edge="1" parent="1" source="tEHHGbNQgzvm8dG8htd9-20" target="tEHHGbNQgzvm8dG8htd9-34">
          <mxGeometry width="50" height="50" relative="1" as="geometry">
            <mxPoint x="740" y="260" as="sourcePoint" />
            <mxPoint x="908" y="325" as="targetPoint" />
          </mxGeometry>
        </mxCell>
        <mxCell id="tEHHGbNQgzvm8dG8htd9-41" value="" style="endArrow=classic;html=1;rounded=0;exitX=1;exitY=0.5;exitDx=0;exitDy=0;entryX=0;entryY=0.5;entryDx=0;entryDy=0;" edge="1" parent="1" source="tEHHGbNQgzvm8dG8htd9-22" target="tEHHGbNQgzvm8dG8htd9-34">
          <mxGeometry width="50" height="50" relative="1" as="geometry">
            <mxPoint x="730" y="390" as="sourcePoint" />
            <mxPoint x="898" y="455" as="targetPoint" />
          </mxGeometry>
        </mxCell>
        <mxCell id="tEHHGbNQgzvm8dG8htd9-42" value="" style="endArrow=classic;html=1;rounded=0;exitX=1;exitY=0.5;exitDx=0;exitDy=0;entryX=0;entryY=0.5;entryDx=0;entryDy=0;" edge="1" parent="1" source="tEHHGbNQgzvm8dG8htd9-23" target="tEHHGbNQgzvm8dG8htd9-34">
          <mxGeometry width="50" height="50" relative="1" as="geometry">
            <mxPoint x="720" y="450" as="sourcePoint" />
            <mxPoint x="888" y="515" as="targetPoint" />
          </mxGeometry>
        </mxCell>
        <mxCell id="tEHHGbNQgzvm8dG8htd9-43" value="" style="endArrow=classic;html=1;rounded=0;exitX=1;exitY=0.5;exitDx=0;exitDy=0;entryX=0;entryY=0.5;entryDx=0;entryDy=0;" edge="1" parent="1" source="tEHHGbNQgzvm8dG8htd9-21" target="tEHHGbNQgzvm8dG8htd9-35">
          <mxGeometry width="50" height="50" relative="1" as="geometry">
            <mxPoint x="790" y="500" as="sourcePoint" />
            <mxPoint x="958" y="565" as="targetPoint" />
          </mxGeometry>
        </mxCell>
        <mxCell id="tEHHGbNQgzvm8dG8htd9-44" value="" style="endArrow=classic;html=1;rounded=0;exitX=1;exitY=0.5;exitDx=0;exitDy=0;entryX=0;entryY=0.5;entryDx=0;entryDy=0;" edge="1" parent="1" source="tEHHGbNQgzvm8dG8htd9-24" target="tEHHGbNQgzvm8dG8htd9-35">
          <mxGeometry width="50" height="50" relative="1" as="geometry">
            <mxPoint x="720" y="480" as="sourcePoint" />
            <mxPoint x="888" y="545" as="targetPoint" />
          </mxGeometry>
        </mxCell>
      </root>
    </mxGraphModel>
  </diagram>
</mxfile>
